<svg width="562" height="44" viewBox="0 0 562 44" fill="none" xmlns="http://www.w3.org/2000/svg">
<rect y="40" width="562" height="4" rx="2" fill="white" fill-opacity="0.3"/>
<rect y="40" width="87" height="4" rx="2" fill="white"/>
<path d="M40.6777 18.1392C39.9287 18.1392 39.2907 17.9354 38.7637 17.5277C38.2367 17.1167 37.834 16.5218 37.5556 15.7429C37.2772 14.9607 37.138 14.0161 37.138 12.9091C37.138 11.8087 37.2772 10.8691 37.5556 10.0902C37.8373 9.308 38.2417 8.71141 38.7686 8.30043C39.2989 7.88613 39.9353 7.67898 40.6777 7.67898C41.4202 7.67898 42.0549 7.88613 42.5819 8.30043C43.1122 8.71141 43.5165 9.308 43.7949 10.0902C44.0766 10.8691 44.2175 11.8087 44.2175 12.9091C44.2175 14.0161 44.0783 14.9607 43.7999 15.7429C43.5215 16.5218 43.1188 17.1167 42.5918 17.5277C42.0648 17.9354 41.4268 18.1392 40.6777 18.1392ZM40.6777 17.0455C41.4202 17.0455 41.9969 16.6875 42.4078 15.9716C42.8188 15.2557 43.0243 14.2348 43.0243 12.9091C43.0243 12.0275 42.9299 11.2768 42.7409 10.657C42.5553 10.0372 42.2869 9.56487 41.9355 9.24006C41.5875 8.91525 41.1683 8.75284 40.6777 8.75284C39.9419 8.75284 39.3669 9.11577 38.9526 9.84162C38.5383 10.5642 38.3311 11.5866 38.3311 12.9091C38.3311 13.7907 38.4239 14.5398 38.6096 15.1562C38.7952 15.7727 39.062 16.2417 39.41 16.5632C39.7613 16.8847 40.1839 17.0455 40.6777 17.0455ZM46.6262 18.0795C46.381 18.0795 46.1705 17.9917 45.9949 17.8161C45.8192 17.6404 45.7314 17.4299 45.7314 17.1847C45.7314 16.9394 45.8192 16.7289 45.9949 16.5533C46.1705 16.3776 46.381 16.2898 46.6262 16.2898C46.8715 16.2898 47.082 16.3776 47.2576 16.5533C47.4333 16.7289 47.5211 16.9394 47.5211 17.1847C47.5211 17.3471 47.4797 17.4962 47.3968 17.6321C47.3173 17.768 47.2096 17.8774 47.0737 17.9602C46.9411 18.0398 46.792 18.0795 46.6262 18.0795ZM52.5723 18.1392C51.8232 18.1392 51.1852 17.9354 50.6582 17.5277C50.1312 17.1167 49.7285 16.5218 49.4501 15.7429C49.1717 14.9607 49.0325 14.0161 49.0325 12.9091C49.0325 11.8087 49.1717 10.8691 49.4501 10.0902C49.7318 9.308 50.1362 8.71141 50.6632 8.30043C51.1935 7.88613 51.8298 7.67898 52.5723 7.67898C53.3147 7.67898 53.9494 7.88613 54.4764 8.30043C55.0067 8.71141 55.411 9.308 55.6895 10.0902C55.9712 10.8691 56.112 11.8087 56.112 12.9091C56.112 14.0161 55.9728 14.9607 55.6944 15.7429C55.416 16.5218 55.0133 17.1167 54.4863 17.5277C53.9593 17.9354 53.3213 18.1392 52.5723 18.1392ZM52.5723 17.0455C53.3147 17.0455 53.8914 16.6875 54.3024 15.9716C54.7134 15.2557 54.9189 14.2348 54.9189 12.9091C54.9189 12.0275 54.8244 11.2768 54.6355 10.657C54.4499 10.0372 54.1814 9.56487 53.8301 9.24006C53.4821 8.91525 53.0628 8.75284 52.5723 8.75284C51.8365 8.75284 51.2614 9.11577 50.8471 9.84162C50.4328 10.5642 50.2257 11.5866 50.2257 12.9091C50.2257 13.7907 50.3185 14.5398 50.5041 15.1562C50.6897 15.7727 50.9565 16.2417 51.3045 16.5632C51.6558 16.8847 52.0784 17.0455 52.5723 17.0455ZM61.3223 18.1392C60.5732 18.1392 59.9352 17.9354 59.4082 17.5277C58.8812 17.1167 58.4785 16.5218 58.2001 15.7429C57.9217 14.9607 57.7825 14.0161 57.7825 12.9091C57.7825 11.8087 57.9217 10.8691 58.2001 10.0902C58.4818 9.308 58.8862 8.71141 59.4132 8.30043C59.9435 7.88613 60.5798 7.67898 61.3223 7.67898C62.0647 7.67898 62.6994 7.88613 63.2264 8.30043C63.7567 8.71141 64.161 9.308 64.4395 10.0902C64.7212 10.8691 64.862 11.8087 64.862 12.9091C64.862 14.0161 64.7228 14.9607 64.4444 15.7429C64.166 16.5218 63.7633 17.1167 63.2363 17.5277C62.7093 17.9354 62.0713 18.1392 61.3223 18.1392ZM61.3223 17.0455C62.0647 17.0455 62.6414 16.6875 63.0524 15.9716C63.4634 15.2557 63.6689 14.2348 63.6689 12.9091C63.6689 12.0275 63.5744 11.2768 63.3855 10.657C63.1999 10.0372 62.9314 9.56487 62.5801 9.24006C62.2321 8.91525 61.8128 8.75284 61.3223 8.75284C60.5865 8.75284 60.0114 9.11577 59.5971 9.84162C59.1828 10.5642 58.9757 11.5866 58.9757 12.9091C58.9757 13.7907 59.0685 14.5398 59.2541 15.1562C59.4397 15.7727 59.7065 16.2417 60.0545 16.5632C60.4058 16.8847 60.8284 17.0455 61.3223 17.0455Z" fill="#F3F3F3"/>
<path d="M15.75 5.25V18.75M8.25 5.25V18.75" stroke="white" stroke-width="1.5" stroke-linecap="round" stroke-linejoin="round"/>
<path d="M506 3H503C502.47 3 501.961 3.21071 501.586 3.58579C501.211 3.96086 501 4.46957 501 5V8M519 8V5C519 4.46957 518.789 3.96086 518.414 3.58579C518.039 3.21071 517.53 3 517 3H514M514 21H517C517.53 21 518.039 20.7893 518.414 20.4142C518.789 20.0391 519 19.5304 519 19V16M501 16V19C501 19.5304 501.211 20.0391 501.586 20.4142C501.961 20.7893 502.47 21 503 21H506" stroke="#F3F3F3" stroke-width="1.5" stroke-linecap="round" stroke-linejoin="round"/>
<path d="M469 5L464 9H460V15H464L469 19V5Z" stroke="#F3F3F3" stroke-width="1.5" stroke-linecap="round" stroke-linejoin="round"/>
<path d="M481 9L475 15" stroke="#F3F3F3" stroke-width="1.5" stroke-linecap="round" stroke-linejoin="round"/>
<path d="M475 9L481 15" stroke="#F3F3F3" stroke-width="1.5" stroke-linecap="round" stroke-linejoin="round"/>
<path d="M550 6.75C549.801 6.75 549.61 6.67098 549.47 6.53033C549.329 6.38968 549.25 6.19891 549.25 6C549.25 5.80109 549.329 5.61032 549.47 5.46967C549.61 5.32902 549.801 5.25 550 5.25C550.199 5.25 550.39 5.32902 550.53 5.46967C550.671 5.61032 550.75 5.80109 550.75 6C550.75 6.19891 550.671 6.38968 550.53 6.53033C550.39 6.67098 550.199 6.75 550 6.75ZM550 12.75C549.801 12.75 549.61 12.671 549.47 12.5303C549.329 12.3897 549.25 12.1989 549.25 12C549.25 11.8011 549.329 11.6103 549.47 11.4697C549.61 11.329 549.801 11.25 550 11.25C550.199 11.25 550.39 11.329 550.53 11.4697C550.671 11.6103 550.75 11.8011 550.75 12C550.75 12.1989 550.671 12.3897 550.53 12.5303C550.39 12.671 550.199 12.75 550 12.75ZM550 18.75C549.801 18.75 549.61 18.671 549.47 18.5303C549.329 18.3897 549.25 18.1989 549.25 18C549.25 17.8011 549.329 17.6103 549.47 17.4697C549.61 17.329 549.801 17.25 550 17.25C550.199 17.25 550.39 17.329 550.53 17.4697C550.671 17.6103 550.75 17.8011 550.75 18C550.75 18.1989 550.671 18.3897 550.53 18.5303C550.39 18.671 550.199 18.75 550 18.75Z" stroke="#F3F3F3" stroke-width="1.5" stroke-linecap="round" stroke-linejoin="round"/>
</svg>
